<svg width="48" height="48" viewBox="0 0 48 48" fill="none" xmlns="http://www.w3.org/2000/svg">
<path d="M24 22.5C22.2761 22.5 20.6228 21.8152 19.4038 20.5962C18.1848 19.3772 17.5 17.7239 17.5 16C17.5 14.2761 18.1848 12.6228 19.4038 11.4038C20.6228 10.1848 22.2761 9.5 24 9.5C25.7239 9.5 27.3772 10.1848 28.5962 11.4038C29.8152 12.6228 30.5 14.2761 30.5 16C30.5 17.7239 29.8152 19.3772 28.5962 20.5962C27.3772 21.8152 25.7239 22.5 24 22.5ZM24 31.5C30.0489 31.5 35.0377 32.5594 38.5 36.6589V38.5H9.5V36.6587C12.9622 32.5577 17.9506 31.5 24 31.5Z" stroke="black" stroke-width="3"/>
</svg>
