<svg width="38" height="38" viewBox="0 0 38 38" fill="none" xmlns="http://www.w3.org/2000/svg">
<path fill-rule="evenodd" clip-rule="evenodd" d="M23.2196 3.68916C23.5012 3.54839 23.8271 3.52518 24.1258 3.62464C24.4245 3.7241 24.6715 3.9381 24.8124 4.21958L28.2973 11.1894C30.4396 11.3541 31.7838 11.7752 32.6515 12.8472C34.0765 14.611 33.5081 17.2647 32.3713 22.5736L31.692 25.7402C30.9209 29.3392 30.5362 31.1378 29.2299 32.1939C27.9237 33.25 26.0838 33.25 22.4042 33.25H15.5958C11.9162 33.25 10.0763 33.25 8.77168 32.1939C7.46384 31.1378 7.07751 29.3392 6.30801 25.7402L5.62876 22.5736C4.49193 17.2647 3.92193 14.611 5.34851 12.8472C6.21618 11.7737 7.56043 11.3541 9.70268 11.1894L13.1876 4.21958C13.3297 3.94033 13.5765 3.72858 13.8741 3.63047C14.1717 3.53236 14.496 3.55584 14.7763 3.69581C15.0567 3.83577 15.2703 4.08087 15.3708 4.37769C15.4712 4.67451 15.4502 4.99899 15.3124 5.28042L12.407 11.0912C13.1718 11.0833 14.0062 11.0833 14.9182 11.0833H23.0818C23.9938 11.0833 24.8283 11.0833 25.593 11.0912L22.6876 5.28042C22.5469 4.99864 22.524 4.67253 22.6237 4.37382C22.7235 4.07511 22.9378 3.82985 23.2196 3.68916ZM11.4792 19C11.4792 18.6851 11.6043 18.383 11.827 18.1603C12.0497 17.9376 12.3517 17.8125 12.6667 17.8125H25.3333C25.6483 17.8125 25.9503 17.9376 26.173 18.1603C26.3957 18.383 26.5208 18.6851 26.5208 19C26.5208 19.3149 26.3957 19.617 26.173 19.8397C25.9503 20.0624 25.6483 20.1875 25.3333 20.1875H12.6667C12.3517 20.1875 12.0497 20.0624 11.827 19.8397C11.6043 19.617 11.4792 19.3149 11.4792 19ZM15.8333 22.5625C15.5184 22.5625 15.2164 22.6876 14.9937 22.9103C14.771 23.133 14.6458 23.4351 14.6458 23.75C14.6458 24.0649 14.771 24.367 14.9937 24.5897C15.2164 24.8124 15.5184 24.9375 15.8333 24.9375H22.1667C22.4816 24.9375 22.7837 24.8124 23.0064 24.5897C23.2291 24.367 23.3542 24.0649 23.3542 23.75C23.3542 23.4351 23.2291 23.133 23.0064 22.9103C22.7837 22.6876 22.4816 22.5625 22.1667 22.5625H15.8333Z" fill="black"/>
</svg>
