<svg width="35" height="35" viewBox="0 0 35 35" fill="none" xmlns="http://www.w3.org/2000/svg">
<path d="M32 32L25.003 25.003M25.003 25.003C26.1999 23.8062 27.1493 22.3853 27.797 20.8215C28.4448 19.2577 28.7781 17.5817 28.7781 15.8891C28.7781 14.1965 28.4448 12.5204 27.797 10.9566C27.1493 9.39286 26.1999 7.97198 25.003 6.77512C23.8062 5.57826 22.3853 4.62886 20.8215 3.98112C19.2577 3.33339 17.5817 3 15.8891 3C14.1965 3 12.5204 3.33339 10.9566 3.98112C9.39286 4.62886 7.97198 5.57826 6.77512 6.77512C4.35795 9.19229 3 12.4707 3 15.8891C3 19.3075 4.35795 22.5859 6.77512 25.003C9.19229 27.4202 12.4707 28.7781 15.8891 28.7781C19.3075 28.7781 22.5859 27.4202 25.003 25.003Z" stroke="black" stroke-width="5" stroke-linecap="round" stroke-linejoin="round"/>
</svg>
